<svg width="4302" height="1200" viewBox="0 0 4302 1200" fill="none" xmlns="http://www.w3.org/2000/svg">
<path fill-rule="evenodd" clip-rule="evenodd" d="M427.18 137.118C467.611 122.963 518.358 121.334 571.619 140.594C608.412 153.898 647.624 168.289 688.512 199.264C729.031 229.965 767.58 273.972 812.112 341.689L812.564 342.407L813.544 343.88L814.373 345.391L814.787 346.109C836.202 384.915 843.205 425.35 835.174 466.471C827.662 504.925 807.986 538.565 786.563 567.756C765.055 597.061 737.676 627.242 709.765 657.669C707.252 660.408 704.698 663.17 702.153 665.942C675.705 694.741 647.709 725.24 619.024 759.671C583.019 802.889 561.209 854.764 538.797 908.896C534.357 919.62 529.834 930.486 525.269 941.083C512.729 970.193 496.591 1004.93 473.003 1030.77C445.439 1060.97 406.294 1080.37 357.203 1072.1C258.648 1055.48 198.876 958.975 166.603 858.273C132.407 751.561 118.963 612.063 130.201 459.86L130.314 458.538L130.503 455.856L131.03 453.173L131.294 451.889C137.958 417.788 149.15 389.77 166.829 365.414C183.725 342.139 204.08 325.81 221.394 312.599C225.121 309.756 228.945 306.879 232.699 304.061C262.921 281.372 298.34 254.77 343.411 197.79C352.586 184.518 364.729 173.561 376.309 165.188C386.793 157.606 402.421 145.789 427.18 137.118ZM540.983 225.671C506.702 213.278 477.309 215.373 456.95 222.498C445.844 226.386 439.624 230.946 429.102 238.553C422.239 243.517 418.574 247.672 417.345 249.585L416.139 251.474L414.745 253.249C362.284 319.74 319.475 351.933 286.774 376.483C282.968 379.34 279.431 381.976 276.034 384.568C259.716 397.018 248.437 406.723 239.783 418.644C231.545 429.994 224.759 444.688 220.075 467.907C209.629 611.31 222.837 738.061 252.482 830.581C283.06 926.001 327.619 975.393 372.163 982.904C385.92 985.221 395.745 981.451 406.455 969.719C418.633 956.377 429.707 934.793 442.442 905.231C446.71 895.325 450.991 885.058 455.48 874.215C477.145 821.888 503.586 757.151 549.763 701.718C580.039 665.376 609.466 633.371 635.793 604.703C638.339 601.931 640.84 599.182 643.33 596.467C671.8 565.432 695.811 538.844 713.91 514.186C732.013 489.519 742.858 468.539 746.656 449.093C750.248 430.701 747.847 412.042 736.218 390.65C694.914 327.963 663.171 293.421 634.135 271.421C605.161 249.469 577.522 238.884 540.983 225.671Z" fill="#121212"></path>
<path fill-rule="evenodd" clip-rule="evenodd" d="M1796.28 466.698C1927.48 468.598 1994.12 558.227 1995.58 682.225C1898.04 683.607 1800.48 683.708 1702.94 682.527C1709.38 695.369 1715.97 708.447 1726.15 718.681C1787.04 779.899 1892.38 759.484 1961.06 728.05L1986.01 713.543C1986.68 736.551 1986.1 760.922 1985.9 784.038C1894.4 837.856 1759.26 858.541 1668.31 792.953C1630.19 765.514 1604.63 723.895 1597.27 677.427C1583.16 589.542 1632.7 512.199 1715.11 482.527C1737.94 474.307 1754.66 471.381 1778.87 467.491C1784.02 466.895 1791 466.621 1796.28 466.698ZM1785.2 542.142C1737.87 553.421 1718.76 570.262 1699.58 615.092C1739.16 614.084 1778.77 613.779 1818.36 614.185C1843.75 614.316 1873.5 613.786 1898.51 614.828C1878.53 559.271 1843.77 538.514 1785.2 542.142Z" fill="#121212"></path>
<path d="M2230.76 467.454C2329.54 461.354 2438.77 516.331 2454.11 618.605L2353.76 619.323C2343.2 594.042 2333.61 575.361 2308.99 560.729C2261.5 532.536 2186.34 539.15 2156.26 589.629C2128.59 636.087 2136.49 715.361 2187.35 743.161C2242.37 773.231 2314.24 757.613 2346.07 701.454L2354.59 683.358C2387.35 682.915 2420.9 683.275 2453.73 683.245C2446.86 714.919 2439.94 734.344 2419.59 760.388C2349.48 849.992 2185.55 855.121 2100 787.513C2027.4 730.142 2015.66 611.648 2074.87 540.479C2116.89 489.975 2167.13 474.513 2229.74 467.642C2230.08 467.592 2230.43 467.506 2230.76 467.454Z" fill="#121212"></path>
<path d="M2682.62 467.642C2784.51 460.926 2888.43 510.852 2909.2 618.719L2809.23 619.286C2781.9 531.811 2662.38 518.013 2611.13 588.874C2569.7 646.152 2601.51 746.623 2677.19 755.553C2728.31 761.573 2768.83 751.524 2799.02 706.441L2810.32 683.245L2909.13 682.98C2903.01 714.421 2894.31 737.244 2873.74 762.768C2804.02 849.251 2634.73 855.353 2552.57 786.796C2517.29 756.814 2495.4 713.95 2491.75 667.718C2481.26 548.001 2571.93 477.009 2682.62 467.642Z" fill="#121212"></path>
<path fill-rule="evenodd" clip-rule="evenodd" d="M3105.01 467.454C3175.92 458.331 3234.92 502.315 3276.65 554.42C3279.13 528.127 3281.36 501.79 3283.43 475.463C3315.11 474.939 3347.93 475.45 3379.71 475.538C3383.87 584.6 3381.11 713.455 3381.22 824.196C3349.54 823.302 3314.86 823.927 3282.94 823.856C3281.17 805.945 3279.61 788.01 3278.27 770.06C3277.8 762.219 3277.25 758.972 3275.63 751.359C3272.33 752.187 3262.53 763.423 3260.26 766.584C3191.67 862.276 3016.17 855.744 2967.65 742.406C2916.71 623.313 2961.71 487.973 3105.01 467.454ZM3129.54 548.489C3034.97 570.598 3024.81 697.464 3097.96 742.179C3120.53 755.742 3147.55 759.695 3173.06 753.173C3178.61 751.778 3185.26 749.413 3190.7 747.43C3235.58 726.328 3260.1 702.194 3277.29 654.608C3277.69 653.489 3278.11 652.37 3278.5 651.246C3256.88 583.052 3201.73 541.696 3129.54 548.489Z" fill="#121212"></path>
<path fill-rule="evenodd" clip-rule="evenodd" d="M1209.55 366.358C1312.9 366.343 1407.86 363.76 1490.67 441.273C1531.79 479.77 1551.79 537.988 1551.6 593.407C1551.36 662.271 1532.21 706.507 1484.68 755.099C1405.73 827.201 1319 824.245 1219.35 824.196C1168.27 823.938 1117.17 824.079 1066.09 824.612C1065.04 671.9 1065.13 519.181 1066.36 366.472L1209.55 366.358ZM1415.3 506.554C1362.47 444.965 1267.29 456.192 1193.95 457.065L1169.16 457.896L1168.82 733.83C1240.48 734.172 1336.46 745.131 1395.29 703.607C1426.33 677.344 1443.8 648.489 1447.26 606.743C1450.43 570.409 1438.91 534.296 1415.3 506.554Z" fill="#121212"></path>
<path d="M3659.28 467.34C3754.14 457.07 3828.46 523.037 3829.95 619.323C3831.02 687.85 3829.94 755.878 3830.21 824.347L3729.41 824.234C3728.9 783.724 3729.01 741.101 3729.52 699.754C3730.34 633.46 3734.58 556.67 3646.85 550.302C3616.83 548.124 3592.66 558.121 3569.94 578.182C3535.42 621.658 3540.73 657.693 3540.88 709.841C3540.99 747.751 3541.07 785.896 3541.07 823.818L3441.29 824.121L3440.84 475.425L3517.52 475.463C3523.22 498.475 3528.12 529.531 3532.56 553.438C3569.37 501.875 3593.05 478.659 3659.28 467.34Z" fill="#121212"></path>
<path fill-rule="evenodd" clip-rule="evenodd" d="M4026.39 422.459C4032.82 435.897 4040.35 451.085 4048.28 467.114L4048.32 467.151C4070.45 511.864 4095.84 563.186 4110.05 601.643C4096.85 600.733 4083.23 601.039 4069.88 601.341C4068.17 601.379 4066.45 601.418 4064.75 601.454C4064 601.47 4063.24 601.477 4062.49 601.492C4062.01 600.101 4061.52 598.586 4060.98 596.996C4057.81 587.51 4053.69 575.175 4048.17 568.511C4044.53 564.116 4041.75 564.113 4037.05 564.129C4035.98 564.133 4034.79 564.14 4033.47 564.091C4014.96 564.79 3994.92 564.708 3975.48 564.62C3967.92 564.586 3960.44 564.569 3953.17 564.582L3935.16 600.925L3888.96 601.567C3915.78 541.515 3943.17 481.705 3971.07 422.157L4026.39 422.459ZM3999.26 459.482C3989.32 476.541 3976.97 506.196 3968.89 525.633L3968.21 527.257L4006.8 527.408L4030.87 527.257C4029.86 524.99 4028.08 520.728 4025.86 515.395C4017.76 495.905 4003.73 462.139 3999.26 459.482Z" fill="#121212"></path>
<path d="M4174.33 423.857C4174.61 480.939 4175.55 544.953 4173.05 601.567L4130.06 601.265C4130.38 548.435 4131.87 474.978 4128.44 423.366L4174.33 423.857Z" fill="#121212"></path>
</svg>